Coordinates
version=1
nRows=19
nColumns=36
inDegrees=yes

Units are S.I. units (second, meters, Newtons, ...)
If the header above contains a line with 'inDegrees', this indicates whether rotational values are in degrees (yes) or radians (no).

endheader
time	pelvis_tilt	pelvis_list	pelvis_rotation	pelvis_tx	pelvis_ty	pelvis_tz	hip_flexion_r	hip_adduction_r	hip_rotation_r	knee_angle_r	knee_angle_r_beta	ankle_angle_r	subtalar_angle_r	mtp_angle_r	hip_flexion_l	hip_adduction_l	hip_rotation_l	knee_angle_l	knee_angle_l_beta	ankle_angle_l	subtalar_angle_l	mtp_angle_l	lumbar_extension	lumbar_bending	lumbar_rotation	arm_flex_r	arm_add_r	arm_rot_r	elbow_flex_r	pro_sup_r	arm_flex_l	arm_add_l	arm_rot_l	elbow_flex_l	pro_sup_l
      3.45416670	     -0.19787670	      1.38268471	     -0.53284337	     -0.32870771	      1.35236372	     -0.02827929	     23.08499713	     -2.81668865	     -1.66623185	     45.01980283	      0.78574379	    -13.33159099	    -22.93842746	     -7.49999987	     11.66438195	     -7.65359756	    -10.64325535	     48.18288327	      0.84094996	    -15.69038984	      1.64594996	     -7.49999987	    -20.13220653	      2.87818171	     -6.98049644	      7.92450160	     -5.39300786	      6.39239929	     29.98281197	     83.03712179	     12.06602598	    -10.14161187	     -9.92973820	     28.33538680	     70.00120444
      3.45833330	     -0.50734664	      1.40771841	     -0.54647040	     -0.32546508	      1.35220441	     -0.02750375	     23.40627413	     -2.64120995	     -1.06314132	     43.58208385	      0.76065086	    -13.90113777	    -22.94885701	     -7.49999987	     12.62835026	     -8.10212297	    -11.20893145	     48.34508088	      0.84378084	    -14.32736248	      1.93152377	     -7.49999987	    -19.95759776	      2.58199653	     -7.02731571	      7.18814906	     -5.11838946	      6.14479837	     29.17168615	     83.18715266	     11.29023291	    -10.82474507	    -10.88462868	     27.59099060	     70.09624390
      3.46250000	     -0.82725296	      1.82605133	     -0.75889020	     -0.32554224	      1.34265334	     -0.02861978	     24.43168264	     -3.08181194	     -0.43216709	     43.01655116	      0.75078045	    -14.12539364	    -23.62897036	     -7.49999987	     14.78776227	     -8.28509355	    -11.61504553	     49.74752534	      0.86825811	    -11.72212563	      0.22856454	     -7.49999987	    -20.10631424	      1.99394357	     -7.06988331	      6.68789405	     -4.93216037	      5.93791844	     28.69346839	     83.01818912	     10.75790598	    -11.59272302	    -11.64780789	     27.09364241	     70.04372622
      3.46666670	     -1.45595970	      1.94305952	     -0.83054846	     -0.31863503	      1.34085263	     -0.02834821	     25.24650065	     -3.33432258	     -0.20018784	     41.95028057	      0.73217052	    -14.23519628	    -24.38361829	     -7.49999987	     15.72232828	     -8.12778053	    -12.11940231	     49.12709110	      0.85742949	    -10.10341568	      1.15600201	     -7.49999987	    -19.53676074	      1.84367811	     -7.14889277	      5.87391915	     -5.02153182	      5.55439656	     28.12957480	     82.22460212	      9.78096649	    -11.82746370	    -12.95099358	     26.64026288	     69.77828789
      3.47083330	     -1.88521578	      2.05654422	     -1.02916959	     -0.31461930	      1.33716339	     -0.02762766	     26.35257912	     -3.55980246	     -0.03757437	     41.93441432	      0.73189360	    -15.17344460	    -25.03829452	     -7.49999987	     16.35601599	     -7.83466760	    -12.29634813	     48.64312634	      0.84898271	     -9.41824687	      1.93376509	     -7.49999987	    -19.36705671	      1.78792693	     -7.24026485	      5.24707519	     -5.12340459	      5.31757166	     27.71330174	     82.02739838	      8.89540037	    -12.02960780	    -14.23389355	     26.17414987	     69.99335823
      3.47500000	     -2.20987484	      2.06981679	     -1.00068405	     -0.30592395	      1.33334371	     -0.02559489	     26.68235487	     -3.56113086	      0.01327809	     41.19375709	      0.71896669	    -16.80921679	    -26.77621560	     -7.49999987	     16.52106705	     -7.63850026	    -12.49198846	     48.32473408	      0.84342572	    -10.79959541	      3.01978567	     -7.49999987	    -18.99599172	      1.76550540	     -7.36413573	      4.10220017	     -5.24499558	      4.94319546	     27.80314136	     81.33455660	      7.69328930	    -12.27909938	    -14.68643870	     25.98011971	     69.67234025
      3.47916670	     -2.20350030	      2.22784724	     -0.89412282	     -0.30176699	      1.33305511	     -0.02721022	     26.66936038	     -3.90672081	      0.00232887	     40.31804340	      0.70368261	    -17.24628131	    -26.50111188	     -7.49999987	     16.73339916	     -7.16960706	    -12.27260942	     47.89215630	      0.83587581	    -12.30321558	      4.41364639	     -7.49999987	    -19.03728984	      1.66104842	     -7.37639116	      3.20407897	     -5.41997454	      4.81151022	     27.34348427	     81.39704150	      6.88800165	    -12.45246674	    -14.95287102	     25.45527401	     69.73716597
      3.48333330	     -2.08421922	      2.31264577	     -0.80987510	     -0.29655022	      1.33056473	     -0.02768396	     26.57729628	     -4.13170284	     -0.01397047	     39.50068242	      0.68941696	    -18.64442237	    -27.57236677	     -7.49999987	     17.20893798	     -6.98605887	    -12.14210674	     47.82274714	      0.83466440	    -13.37263956	      4.48865864	     -7.49999987	    -19.26563119	      1.65842963	     -7.68308885	      2.53771187	     -5.45391859	      4.06235067	     26.66973084	     80.76793873	      6.04226160	    -12.55522733	    -15.93471152	     24.48441512	     69.50156993
      3.48750000	     -1.83937092	      2.70566212	     -0.70539180	     -0.28833725	      1.32921291	     -0.02797940	     26.13447895	     -5.05049771	     -0.85844016	     38.35293186	      0.66938494	    -19.99758061	    -28.20226449	     -7.49999987	     17.26933067	     -6.54402705	    -12.27738663	     47.04800433	      0.82114258	    -15.03892914	      4.85820852	     -7.49999987	    -19.51170315	      1.34271563	     -7.69256235	      1.48251718	     -5.48551958	      3.18853796	     26.03192723	     81.24830662	      5.26768450	    -12.61667968	    -16.97503230	     23.56570741	     69.91891439
      3.49166670	     -1.54993150	      2.82202805	     -0.86562831	     -0.28463830	      1.32650144	     -0.03041731	     25.91761520	     -5.59670213	     -1.68091627	     37.35313072	      0.65193512	    -21.23167499	    -28.32894178	     -7.49999987	     17.40421510	     -6.40196596	    -12.41821190	     46.36930268	      0.80929700	    -16.05279332	      5.23234425	     -7.49999987	    -20.01186174	      1.40083255	     -7.41968979	      0.50754816	     -5.57144100	      1.35807628	     25.78437688	     80.67382231	      4.47890633	    -12.38068920	    -19.17459754	     23.14098369	     69.94781800
      3.49583330	     -1.31354646	      2.82618449	     -0.62446628	     -0.28113766	      1.32319801	     -0.02960376	     25.71725068	     -6.04570666	     -2.69332005	     36.13772142	      0.63072222	    -21.64089918	    -27.69886186	     -7.49999987	     17.79622957	     -6.41778436	    -12.53114035	     45.97515439	      0.80241782	    -16.60011425	      4.67603977	     -7.49999987	    -20.43059847	      1.62892361	     -7.57317897	     -0.60557590	     -5.59916610	     -0.81749905	     25.71543553	     80.45928947	      3.70541480	    -12.28023816	    -21.84752208	     23.06247494	     70.39269537
      3.50000000	     -1.16464035	      2.83935667	     -0.57164388	     -0.27857468	      1.31872954	     -0.03299502	     25.69225218	     -6.48325212	     -3.38807065	     35.07623503	      0.61219579	    -21.85109959	    -27.27293794	     -7.49999987	     18.37989308	     -6.35934127	    -12.93135446	     45.79016077	      0.79918907	    -17.01236051	      4.09767078	     -7.49999987	    -20.86549579	      1.91413463	     -7.42749359	     -1.41401849	     -5.97134114	     -2.09378333	     25.94028363	     79.65767651	      2.91978959	    -12.15645466	    -23.58475540	     23.23540820	     70.22895547
      3.50416670	     -0.91796380	      2.61480413	     -0.53212270	     -0.27204693	      1.31391315	     -0.03322641	     25.09873842	     -6.58097910	     -4.25831662	     33.53932094	      0.58537158	    -21.58889391	    -26.15153890	     -7.49999987	     18.16936898	     -6.31840539	    -13.02291329	     44.70870440	      0.78031410	    -16.54315797	      5.13075974	     -7.49999987	    -21.17690877	      2.33015722	     -7.51453348	     -2.67640968	     -6.20014554	     -4.44641661	     26.80662327	     79.94520434	      1.75768121	    -11.82604840	    -26.95444882	     23.53140089	     70.87145976
      3.50833330	     -1.27647951	      2.44311858	     -0.58503568	     -0.26729891	      1.30646216	     -0.03617291	     25.72264981	     -6.72597729	     -4.66262003	     32.84539464	      0.57326028	    -21.37307082	    -25.29037137	     -7.49999987	     18.84202254	     -6.30931343	    -13.07375370	     44.14596008	      0.77049235	    -15.49240586	      6.17520255	     -7.49999987	    -20.71057391	      2.72675179	     -7.56102396	     -4.49242611	     -6.51734290	     -5.31084718	     26.94306334	     79.87634999	      0.24039747	    -11.82767386	    -28.55962064	     23.58195779	     71.02089617
      3.51250000	     -0.97298166	      2.31127490	     -0.47773477	     -0.25743885	      1.30102410	     -0.03292533	     25.06491121	     -6.54388931	     -4.89900111	     31.73924276	      0.55395429	    -20.76361737	    -24.38311509	     -7.49999987	     18.64993439	     -6.60729725	    -13.44228790	     43.90966015	      0.76636814	    -14.88764292	      5.02198165	     -7.49999987	    -20.79016272	      2.84879932	     -7.46945225	     -5.98440000	     -6.72804225	     -6.26305089	     26.42674499	     79.79956405	     -0.78380860	    -11.95770676	    -30.63380007	     23.36180895	     71.02787070
      3.51666670	     -0.84251845	      2.34154214	     -0.57849520	     -0.25025883	      1.29637680	     -0.03492156	     24.81678056	     -6.67868748	     -5.22602487	     31.14667047	      0.54361195	    -20.45228692	    -24.11390313	     -7.49999987	     18.53660282	     -6.66195996	    -14.09790428	     43.64290010	      0.76171230	    -14.05130660	      4.41168949	     -7.49999987	    -20.78683140	      2.78047673	     -7.68081319	     -6.93527598	     -6.83961411	     -8.79167507	     26.14228885	     79.46547108	     -2.07963651	    -10.95293462	    -39.66508310	     24.69242796	     71.69703449
      3.52083330	     -0.71625848	      2.34730839	     -0.60394563	     -0.24111807	      1.28999682	     -0.03938019	     24.00576480	     -7.13825685	     -6.00491371	     29.78428107	      0.51983377	    -19.89058095	    -23.07388370	     -7.49999987	     17.95845066	     -6.37671055	    -14.48651817	     42.53757202	      0.74242069	    -12.94113317	      4.68962216	     -7.49999987	    -20.37845773	      2.83668209	     -7.59086536	     -8.13014184	     -7.55402163	     -9.29582636	     25.54552934	     79.52394860	     -3.31003761	    -10.98516850	    -41.37026667	     24.31777679	     72.09862950
      3.52500000	     -0.58333185	      2.38637091	     -0.63997086	     -0.23276214	      1.28583717	     -0.03645116	     23.11689744	     -7.31206191	     -6.53001318	     28.33342110	      0.49451149	    -19.83327658	    -22.51506843	     -7.49999987	     17.36358276	     -6.26307221	    -14.66008993	     41.23975944	      0.71976958	    -12.18762494	      5.51639989	     -7.49999987	    -20.18073918	      2.64167503	     -7.50795313	     -8.93952763	     -8.03857050	    -11.14708854	     25.47440547	     79.23244877	     -4.48744068	    -10.41686322	    -47.70091983	     25.32967610	     73.01567145
      3.52916670	     -0.22287740	      2.67478367	     -0.77450563	     -0.22552171	      1.28165097	     -0.03563340	     22.31854939	     -7.77179192	     -7.48796599	     26.99219493	      0.47110267	    -20.35976359	    -22.46840104	     -7.49999987	     16.83875668	     -6.06540884	    -14.60752403	     40.19028959	      0.70145288	    -12.09546554	      5.93892094	     -7.49999987	    -20.22128935	      2.18357108	     -7.30543892	     -9.89144355	     -8.63866945	    -12.49772234	     25.54658055	     78.92133304	     -5.67061702	    -10.36410940	    -51.51325052	     25.88400368	     74.09219895
